<svg xmlns="http://www.w3.org/2000/svg" viewBox="0 0 64 24" fill="#17a8a2"><defs><style>.cls-1{fill#17a8a2;}</style></defs><g id="圖層_2" data-name="圖層 2"><g id="圖層_1-2" data-name="圖層 1"><path className="cls-1" d="M48,8.56a18.29,18.29,0,0,1-9.48-2.42A12.13,12.13,0,0,0,32,4.43a12.08,12.08,0,0,0-6.52,1.71A18.32,18.32,0,0,1,16,8.56,18.29,18.29,0,0,1,6.52,6.14,12.11,12.11,0,0,0,0,4.43V0A18.41,18.41,0,0,1,9.48,2.41,12,12,0,0,0,16,4.13a12,12,0,0,0,6.52-1.72A18.37,18.37,0,0,1,32,0a18.44,18.44,0,0,1,9.48,2.41A12,12,0,0,0,48,4.13a12,12,0,0,0,6.52-1.72A18.41,18.41,0,0,1,64,0V4.43a12.11,12.11,0,0,0-6.52,1.71A18.29,18.29,0,0,1,48,8.56Z"/><path className="cls-1" d="M48,16.28a18.41,18.41,0,0,1-9.48-2.41A12,12,0,0,0,32,12.15a12,12,0,0,0-6.52,1.72A18.44,18.44,0,0,1,16,16.28a18.41,18.41,0,0,1-9.48-2.41A12,12,0,0,0,0,12.15V7.72a18.41,18.41,0,0,1,9.48,2.41A12,12,0,0,0,16,11.85a12,12,0,0,0,6.52-1.72A18.37,18.37,0,0,1,32,7.72a18.44,18.44,0,0,1,9.48,2.41A12,12,0,0,0,48,11.85a12,12,0,0,0,6.52-1.72A18.41,18.41,0,0,1,64,7.72v4.43a12,12,0,0,0-6.52,1.72A18.41,18.41,0,0,1,48,16.28Z"/><path className="cls-1" d="M48,24a18.41,18.41,0,0,1-9.48-2.41A12,12,0,0,0,32,19.87a12,12,0,0,0-6.52,1.72A18.44,18.44,0,0,1,16,24a18.41,18.41,0,0,1-9.48-2.41A12,12,0,0,0,0,19.87V15.44a18.29,18.29,0,0,1,9.48,2.42A12.11,12.11,0,0,0,16,19.57a12.13,12.13,0,0,0,6.52-1.71A18.26,18.26,0,0,1,32,15.44a18.32,18.32,0,0,1,9.48,2.42A12.08,12.08,0,0,0,48,19.57a12.11,12.11,0,0,0,6.52-1.71A18.29,18.29,0,0,1,64,15.44v4.43a12,12,0,0,0-6.52,1.72A18.41,18.41,0,0,1,48,24Z"/></g></g></svg>