<svg xmlns="http://www.w3.org/2000/svg" viewBox="0 0 70.79 87.03"><defs><style>.cls-1{fill:#fff;}</style></defs><g id="圖層_2" data-name="圖層 2"><g id="圖層_1-2" data-name="圖層 1"><path className="cls-1" d="M68.71,54.55a17.2,17.2,0,0,0-9.15,3.23,14.28,14.28,0,0,1-3.51,1.82,100.74,100.74,0,0,0-4.24-22,62.86,62.86,0,0,0-5.47-12.43,41.46,41.46,0,0,0-3.89-5.6,23.23,23.23,0,0,0-5-4.69,4.85,4.85,0,0,0-1.67-.77,1.56,1.56,0,0,0-.57,0c-.16.05-.32.1-.46.16a7.48,7.48,0,0,0-.8.41,17.25,17.25,0,0,0-2.71,2.14A32.5,32.5,0,0,0,26.86,22,55.59,55.59,0,0,0,20.71,34.1,96,96,0,0,0,15.36,60a12,12,0,0,1-5-2.16,17.11,17.11,0,0,0-9.15-3.24A1.14,1.14,0,0,0,0,55.68v3.74a1.14,1.14,0,0,0,1.06,1.13,11.38,11.38,0,0,1,6.06,2.29,17.19,17.19,0,0,0,10.36,3.27,17.19,17.19,0,0,0,10.36-3.27A11.26,11.26,0,0,1,35,60.52a11.29,11.29,0,0,1,7.12,2.32,17.19,17.19,0,0,0,10.36,3.27,18.59,18.59,0,0,0,3.71-.36l.32.36,0-.43a18.28,18.28,0,0,0,6.35-2.84,11.38,11.38,0,0,1,6.06-2.29,1.14,1.14,0,0,0,1.06-1.13V55.68A1.14,1.14,0,0,0,68.71,54.55ZM24.6,57.79a11.35,11.35,0,0,1-7.12,2.32h-.14a1.06,1.06,0,0,0,.16-.44l.58-4.85c.33-1.91.56-3.84,1-5.74s.76-3.81,1.28-5.68,1-3.72,1.6-5.57a56.8,56.8,0,0,1,4.69-10.53,33.43,33.43,0,0,1,3.28-4.67c.31-.38.64-.75,1-1.1a1.13,1.13,0,0,1,2,.76l.09,15.93.16,16.39A17.23,17.23,0,0,0,24.6,57.79Zm20.72,0a17.89,17.89,0,0,0-7.37-3l.3-32.31a1.14,1.14,0,0,1,2-.75c.34.37.66.75,1,1.13a34.35,34.35,0,0,1,3.3,4.92,58.14,58.14,0,0,1,4.61,11c.53,1.93,1.11,3.85,1.51,5.82s.79,3.94,1.14,5.92.52,4,.8,6l.3,3.6-.42,0A11.27,11.27,0,0,1,45.32,57.78Z"/><path className="cls-1" d="M52.44,76.57A17.19,17.19,0,0,1,42.08,73.3,11.29,11.29,0,0,0,35,71a11.26,11.26,0,0,0-7.12,2.32,17.19,17.19,0,0,1-10.36,3.27A17.19,17.19,0,0,1,7.12,73.3,11.38,11.38,0,0,0,1.06,71,1.14,1.14,0,0,1,0,69.88V66.15A1.14,1.14,0,0,1,1.21,65a17.2,17.2,0,0,1,9.15,3.24,11.35,11.35,0,0,0,7.12,2.32,11.35,11.35,0,0,0,7.12-2.32A17.19,17.19,0,0,1,35,65a17.19,17.19,0,0,1,10.36,3.27,12.09,12.09,0,0,0,14.24,0A17.2,17.2,0,0,1,68.71,65a1.14,1.14,0,0,1,1.21,1.14v3.73A1.14,1.14,0,0,1,68.86,71,11.38,11.38,0,0,0,62.8,73.3,17.19,17.19,0,0,1,52.44,76.57Z"/><path className="cls-1" d="M52.44,87a17.19,17.19,0,0,1-10.36-3.27A11.29,11.29,0,0,0,35,81.44a11.26,11.26,0,0,0-7.12,2.32A17.19,17.19,0,0,1,17.48,87,17.19,17.19,0,0,1,7.12,83.76a11.38,11.38,0,0,0-6.06-2.29A1.14,1.14,0,0,1,0,80.34V76.61a1.14,1.14,0,0,1,1.21-1.14,17.28,17.28,0,0,1,9.15,3.24A11.29,11.29,0,0,0,17.48,81a11.29,11.29,0,0,0,7.12-2.32A17.19,17.19,0,0,1,35,75.44a17.19,17.19,0,0,1,10.36,3.27A11.26,11.26,0,0,0,52.44,81a11.26,11.26,0,0,0,7.12-2.32,17.28,17.28,0,0,1,9.15-3.24,1.14,1.14,0,0,1,1.21,1.14v3.73a1.14,1.14,0,0,1-1.06,1.13,11.38,11.38,0,0,0-6.06,2.29A17.19,17.19,0,0,1,52.44,87Z"/><path className="cls-1" d="M12.8,29.55a1.58,1.58,0,0,0-.53-2.27l-6-3.44A1.71,1.71,0,0,0,4,24.47L2.36,27.28A1.7,1.7,0,0,0,3,29.6L8.89,33a1.61,1.61,0,0,0,2.25-.66Z"/><path className="cls-1" d="M21.14,15.92a1.58,1.58,0,0,0,.37-2.3L17.14,8a1.71,1.71,0,0,0-2.39-.3l-2.56,2a1.7,1.7,0,0,0-.3,2.38l4.31,5.54a1.63,1.63,0,0,0,2.35.25Z"/><path className="cls-1" d="M57.38,33.53a1.6,1.6,0,0,0,2.24.68l6.75-3.9A1.7,1.7,0,0,0,67,28l-1.63-2.82A1.7,1.7,0,0,0,63,24.55l-6.71,3.88a1.6,1.6,0,0,0-.55,2.28Z"/><path className="cls-1" d="M51.44,17.74a1.57,1.57,0,0,0,2.32,0L59,12.14a1.71,1.71,0,0,0-.09-2.41L56.51,7.52a1.71,1.71,0,0,0-2.41.09L49,13.14a1.62,1.62,0,0,0,.13,2.35Z"/><path className="cls-1" d="M34.91,10.56c1.31,0,2.16.09,2.16.09a1.52,1.52,0,0,0,1.7-1.54V1.7A1.71,1.71,0,0,0,37.07,0H33.82a1.7,1.7,0,0,0-1.7,1.7V9a1.56,1.56,0,0,0,1.69,1.58Z"/><path className="cls-1" d="M10,45.19c0-1.15,0-1.7,0-1.7A1.54,1.54,0,0,0,8.45,41.8H1.7A1.7,1.7,0,0,0,0,43.5v3.25a1.71,1.71,0,0,0,1.7,1.7H8.43A1.55,1.55,0,0,0,10,46.75S10,46.29,10,45.19Z"/><path className="cls-1" d="M61.27,41.8a1.53,1.53,0,0,0-1.55,1.69s.05.55.05,1.7,0,1.56,0,1.56a1.54,1.54,0,0,0,1.56,1.7h7.8a1.7,1.7,0,0,0,1.7-1.7V43.5a1.7,1.7,0,0,0-1.7-1.7Z"/></g></g></svg>