<svg width="21" height="701" viewBox="0 0 21 701" fill="none" xmlns="http://www.w3.org/2000/svg">
<path d="M17.1904 0C17.1904 19.4461 3.19043 19.4461 3.19043 38.8922C3.19043 58.3383 17.1904 58.3382 17.1904 77.7843C17.1904 97.2304 3.19043 97.2304 3.19042 116.677C3.19042 136.123 17.1904 136.123 17.1904 155.569C17.1904 175.015 3.19042 175.015 3.19042 194.461C3.19042 213.907 17.1904 213.897 17.1904 233.343C17.1904 252.789 3.19042 252.789 3.19042 272.235C3.19042 291.681 17.1904 291.681 17.1904 311.127C17.1904 330.574 3.19042 330.574 3.19041 350.02C3.19041 369.466 17.1904 369.476 17.1904 388.922C17.1904 408.368 3.19041 408.368 3.19041 427.814C3.19041 447.26 17.1904 447.26 17.1904 466.706C17.1904 486.152 3.19041 486.152 3.19041 505.598C3.19041 525.044 17.1904 525.044 17.1904 544.49C17.1904 563.936 3.19041 563.936 3.1904 583.383C3.1904 602.829 17.1904 602.838 17.1904 622.285C17.1904 641.731 3.1904 641.731 3.1904 661.177C3.1904 680.623 17.1904 680.633 17.1904 700.079" stroke="#F5F5F5" stroke-width="6" stroke-miterlimit="10"/>
</svg>
